<svg width="170" height="170" viewBox="0 0 170 170" fill="none" xmlns="http://www.w3.org/2000/svg">
<rect width="170" height="170" fill="#FF5100"/>
<path d="M35.4599 134.811C25.8171 125.169 25.817 109.535 35.4599 99.8917L67.3515 68L102.271 102.92L70.3796 134.811C60.7368 144.454 45.1027 144.454 35.4599 134.811V134.811Z" fill="#1E1E1E"/>
<g style="mix-blend-mode:overlay" opacity="0.9">
<path d="M134.253 35.4599C124.61 25.8171 108.976 25.817 99.3331 35.4599L67 67.7929L101.92 102.713L134.253 70.3796C143.896 60.7368 143.896 45.1027 134.253 35.4599V35.4599Z" fill="white"/>
</g>
<path d="M75.9248 58.8682L67.0002 67.7928L101.92 102.713L110.845 93.7879L75.9248 58.8682Z" fill="white"/>
<path opacity="0.1" d="M78.9248 56L70.0002 64.9246L104.92 99.8444L113.845 90.9197L78.9248 56Z" fill="black"/>
<path d="M75.9248 59L67.0002 67.9246L101.92 102.844L110.845 93.9197L75.9248 59Z" fill="white"/>
</svg>
